<?xml version="1.0" encoding="UTF-8"?>
<!DOCTYPE svg PUBLIC "-//W3C//DTD SVG 1.1//EN" "http://www.w3.org/Graphics/SVG/1.1/DTD/svg11.dtd">
<svg version="1.1" xmlns="http://www.w3.org/2000/svg" xmlns:xlink="http://www.w3.org/1999/xlink" x="0" y="0" width="138.375" height="116.25" viewBox="0, 0, 553.501, 465">
  <g id="レイヤー_1" transform="translate(-124.823, -180)">
    <path d="M207.384,180 L318,371.592 L428.616,180 L509.445,180 L511.177,181 L359.569,443.592 L318,515.592 L318,515.592 L243.287,645 L162.849,645 L160.823,643.831 L276.431,443.592 L276.431,443.592 L276.431,443.592 L124.823,181 L126.555,180 L207.384,180 z" fill="#A6A6A6"/>
    <path d="M641.445,180 L643.177,181 L491.569,443.592 L450,515.592 L450,515.592 L375.287,645 L294.849,645 L292.823,643.831 L408.431,443.592 L408.431,443.592 L408.431,443.592 L389.285,410.431 L430.854,338.431 L450,371.592 L560.616,180 L641.445,180 z" fill="#A6A6A6"/>
    <path d="M419.569,318.884 L423.926,326.431 L382.357,398.431 L378,390.884 L419.569,318.884 z" fill="#A6A6A6"/>
    <path d="M339.384,180 L378,246.884 L336.431,318.884 L256.823,181 L258.555,180 L339.384,180 z" fill="#A6A6A6"/>
    <path d="M678.324,180 L409.856,645 L396,645 L664.468,180 L678.324,180 z" fill="#A6A6A6"/>
  </g>
</svg>
